<svg width="261" height="184" viewBox="0 0 261 184" fill="none" xmlns="http://www.w3.org/2000/svg">
<path d="M227.389 7.54395C228.004 7.41084 228.661 7.39779 229.292 7.61914C229.937 7.84564 230.468 8.28733 230.867 8.91113L230.924 9.00781C231.188 9.49585 231.14 10.0441 231.071 10.417C230.988 10.8622 230.815 11.3512 230.605 11.8389C230.182 12.8207 229.531 13.974 228.842 15.0957C227.48 17.3132 225.81 19.6571 225.34 20.3789C222.865 24.2298 220.511 28.1577 218.285 32.1562L218.284 32.1553C211.373 44.6622 205.965 58.4415 201.02 71.958L200.037 74.6572L198.499 78.9053C201.421 75.1477 204.74 71.6489 208.466 68.5703C210.937 66.529 214.287 63.9971 217.887 62.4463C221.482 60.8976 225.513 60.2523 229.17 62.2979C231.37 63.5278 232.578 65.845 233.178 68.0283C235.098 67.8406 236.843 68.2596 238.009 69.4111C239.407 70.7918 239.671 72.9113 238.85 75.3066C235.478 85.1439 231.502 94.6689 228.526 104.506C238.422 95.9351 247.1 86.231 256.647 77.0557L257.1 76.6348C257.28 76.4753 257.483 76.3044 257.697 76.1455C257.91 75.9864 258.154 75.8242 258.409 75.6953C258.654 75.5712 258.972 75.4461 259.323 75.4219L259.873 75.3848L260.198 75.8281C260.498 76.2373 260.514 76.7052 260.482 77.0244C260.448 77.3607 260.345 77.7049 260.223 78.0205C259.978 78.6566 259.584 79.3714 259.174 80.04C258.353 81.3817 257.347 82.7301 257.034 83.1738C250.373 92.6179 243.141 101.798 235.24 110.271C233.423 112.218 230.377 115.397 227.138 117.168C225.514 118.056 223.73 118.653 221.961 118.466C220.136 118.272 218.495 117.262 217.177 115.281C216.43 114.157 216.079 112.775 215.958 111.348C215.835 109.913 215.938 108.362 216.156 106.841C216.355 105.449 216.655 104.053 216.98 102.756C214.493 105.265 211.828 107.497 208.725 109.458C202.975 113.091 197.417 113.52 193.602 110.94C190.491 108.837 188.849 104.945 189.125 99.9209C184.667 105.162 179.805 109.075 173.098 112.017C168.714 113.939 164.339 114.56 160.82 113.173C157.751 111.963 155.543 109.314 154.543 105.19C148.414 120.597 140.237 136.444 131.912 150.549C127.535 157.964 122.324 165.793 116.815 172.475C114.112 175.753 110.346 179.994 106.205 181.931C105.73 182.153 105.261 182.329 104.833 182.486C104.393 182.648 104.005 182.786 103.629 182.947L103.435 183.031L99.9907 182.996L99.7954 182.905C97.5537 181.867 95.287 180.49 94.356 177.655C93.7458 175.796 93.7209 173.589 94.019 171.303C94.3189 169.004 94.9564 166.545 95.7417 164.141C97.3122 159.331 99.5091 154.629 100.913 151.682L100.916 151.676C104.27 144.747 108.078 138.046 112.314 131.617L112.315 131.616L112.909 130.722C113.677 129.574 114.921 127.752 116.219 126.033C117.082 124.891 117.988 123.769 118.804 122.918C119.211 122.494 119.618 122.113 120.004 121.827C120.354 121.568 120.832 121.274 121.36 121.237L121.806 121.207L122.127 121.52C122.255 121.644 122.452 121.846 122.575 122.142C122.67 122.37 122.695 122.59 122.696 122.775L122.691 122.947C122.671 123.309 122.528 123.746 122.381 124.133C122.221 124.558 122.002 125.064 121.746 125.614C121.232 126.718 120.548 128.058 119.839 129.404C118.395 132.15 116.9 134.829 116.333 135.929C114.014 140.436 110.859 147.138 108.276 153.943C106.127 159.604 104.409 165.248 103.853 169.74C109.059 164.194 114.414 156.495 119.375 148.416C124.927 139.373 129.95 129.918 133.685 122.612C135.254 119.54 136.773 116.442 138.241 113.319L138.243 113.315C138.484 112.806 138.784 112.181 139.093 111.533C136.982 112.876 134.833 113.995 132.222 114.854C129.112 115.877 125.336 116.622 121.761 116.32C118.271 116.026 114.891 114.722 112.595 111.626C111.073 113.52 109.007 116.043 106.711 117.794C105.326 118.851 103.77 119.696 102.115 119.92C100.412 120.15 98.6974 119.708 97.0894 118.36C94.866 116.497 94.1648 113.526 94.0308 110.688C93.8955 107.821 94.3293 104.819 94.6245 102.656C94.6863 102.204 94.7675 101.742 94.8491 101.291C93.0943 103.063 91.1653 104.863 89.0708 106.398C86.0784 108.592 82.6831 110.3 78.9048 110.607C75.8257 110.857 73.3759 109.529 71.729 107.483C70.1031 105.464 69.2529 102.749 69.2437 100.109C69.2108 90.6152 75.1322 82.4214 81.1216 76.0264C83.7024 73.2442 88.8191 68.7875 94.1216 66.2773C96.7701 65.0236 99.5655 64.2074 102.163 64.416C104.665 64.6171 106.913 65.7674 108.586 68.1982C109.217 68.2101 109.82 68.2902 110.408 68.4785C111.179 68.726 111.87 69.1416 112.541 69.7441C114.29 71.3164 114.464 73.4433 113.952 75.376C113.123 78.5008 112.166 81.5975 111.256 84.6602C110.187 88.2638 109.154 91.8794 108.157 95.5039C107.067 99.5164 106.133 104.117 105.625 108.396C107.333 106.924 109.025 105.435 110.702 103.929C113.067 91.2117 123.523 80.8082 133.277 73.5508C136.279 71.3169 141.021 68.5437 145.793 67.3135C150.547 66.0885 155.673 66.3306 158.906 70.668C160.129 72.3079 160.695 74.5135 160.897 76.665C160.96 77.3332 160.985 78.0082 160.986 78.6738C165.555 71.3556 172.264 64.1121 180.553 61.3945C184.263 60.1785 188.641 60.1685 192.292 61.959C193.317 59.3033 194.502 56.6115 195.664 54.0332C201.863 40.2819 209.038 26.4628 218.599 14.5986C219.431 13.5663 221.566 11.1347 223.825 9.41309C224.94 8.56309 226.188 7.80388 227.389 7.54395ZM104.01 0.0263672L104.24 0.163086C105.101 0.672245 106.427 1.35973 107.196 2.5752L107.202 2.58301C108.27 4.30961 108.194 6.196 107.781 7.87891C107.376 9.52953 106.586 11.1903 106.07 12.4531C104.315 16.7458 102.111 20.7659 99.9927 24.7744C98.9438 26.7591 97.92 28.7462 96.8765 30.7432L96.8735 30.748C93.2859 37.5306 89.7976 44.3671 86.4126 51.2559L86.4136 51.2568C80.4778 63.4147 74.6307 75.6172 68.8716 87.8623L68.8706 87.8633C65.4452 95.1232 62.03 102.426 58.4751 109.657L58.4556 109.697L58.4321 109.735C58.0625 110.343 57.3248 111.857 56.4526 113.465C56.0341 114.236 55.5939 115.009 55.1841 115.634C54.9796 115.945 54.771 116.237 54.5669 116.479C54.3799 116.702 54.1296 116.965 53.8296 117.13C53.3134 117.414 52.6616 117.643 52.0151 117.43C51.3013 117.194 51.0041 116.568 50.8872 116.096C50.7688 115.617 50.7681 115.065 50.812 114.539C50.8573 113.998 50.9567 113.408 51.0815 112.817C51.5743 110.489 52.5585 107.79 52.6401 107.529L52.6431 107.521C55.3826 99.0723 58.4328 90.7303 61.7876 82.5137C66.6288 70.3789 71.7369 58.3551 77.1079 46.4521C77.1382 46.3851 77.1693 46.3169 77.1997 46.25C76.9915 46.5226 76.7855 46.7973 76.5767 47.0693L76.5747 47.0723C72.6008 52.212 65.5664 61.4586 58.2388 70.0674C54.5748 74.3719 50.8262 78.532 47.3384 81.9473C43.8704 85.3431 40.5905 88.0738 37.8696 89.4473C35.6167 90.5845 32.7352 91.1796 30.1235 90.2461C28.1251 89.5315 26.3586 87.841 25.4683 85.9424C24.6133 84.119 24.353 81.8152 24.4272 79.373C24.502 76.9144 24.9199 74.2196 25.4985 71.5527C25.8197 70.0726 26.1936 68.5916 26.5894 67.1543C23.6486 72.5889 20.8136 78.0825 18.0894 83.6328L18.0884 83.6338C17.0634 85.7156 15.7793 88.0903 14.4487 90.5879C13.1132 93.0947 11.7236 95.7391 10.4663 98.3926C8.0881 103.412 6.25709 108.321 6.09033 112.305C6.10307 112.309 6.11659 112.312 6.12939 112.316C6.54257 112.468 6.94226 112.757 7.18896 113.287L7.3042 113.538L7.27588 113.812C7.24993 114.063 7.18985 114.309 7.06592 114.551C6.94765 114.781 6.79502 114.958 6.66162 115.1L6.6626 115.101C6.08736 115.712 5.10218 116.363 4.06006 116.441L3.85107 116.449C2.92761 116.449 2.19789 115.978 1.6958 115.471C0.320869 114.08 -0.0128316 112.105 0.000488281 110.486C0.096136 98.8791 4.61537 92.1399 9.13721 81.9658C15.9641 66.4904 23.7432 51.4653 32.4282 36.9805C36.9267 29.4483 41.8787 22.2042 47.2563 15.291L47.2603 15.2861C48.7178 13.4391 50.3053 11.3338 51.98 9.56641C53.0393 8.4484 54.4077 7.74981 56.0552 7.78809C57.4455 7.81329 58.761 8.41788 59.6948 9.45312C61.3589 11.2729 61.4227 13.3036 60.9116 15.1514C60.4259 16.907 59.3641 18.6755 58.6772 20.0195L58.6763 20.0234C57.2931 22.7047 55.9234 25.3935 54.5708 28.0908C48.7997 39.681 42.8673 51.4611 38.604 63.6045C37.1653 67.7024 35.851 72.1325 35.0864 76.3662C34.9378 77.1893 34.8625 78.2092 34.812 79.2314C39.6244 75.5459 44.4826 70.0564 48.3599 65.4922L48.3618 65.4893C52.3447 60.8357 56.2113 56.0802 59.9565 51.2275L59.9585 51.2246C67.427 41.6155 74.8037 31.9325 82.0864 22.1777C85.4718 17.5567 88.9528 13.0086 92.5278 8.53711L92.5327 8.53125C93.6601 7.14108 94.9735 5.47116 96.4038 3.95312C97.8316 2.43779 99.4386 1.00444 101.194 0.111328L101.413 0L104.01 0.0263672ZM222.431 117.495C222.489 117.497 222.548 117.499 222.606 117.499C222.548 117.499 222.489 117.497 222.431 117.495ZM222.709 117.497C222.762 117.496 222.815 117.496 222.869 117.493C222.815 117.496 222.762 117.496 222.709 117.497ZM222.172 117.479C222.224 117.484 222.275 117.488 222.327 117.491C222.275 117.488 222.224 117.484 222.172 117.479ZM223.021 117.484C223.061 117.482 223.1 117.479 223.14 117.476C223.1 117.479 223.061 117.482 223.021 117.484ZM223.284 117.46C223.332 117.454 223.381 117.449 223.429 117.442C223.381 117.449 223.332 117.454 223.284 117.46ZM221.519 117.381C221.609 117.401 221.699 117.419 221.79 117.434C221.699 117.419 221.609 117.401 221.519 117.381ZM223.552 117.424C223.604 117.416 223.655 117.408 223.707 117.398C223.655 117.408 223.604 117.416 223.552 117.424ZM223.823 117.376C223.881 117.365 223.939 117.353 223.997 117.34C223.939 117.353 223.881 117.365 223.823 117.376ZM221.256 117.314C221.315 117.331 221.375 117.346 221.434 117.36C221.375 117.346 221.315 117.331 221.256 117.314ZM224.12 117.312C224.167 117.3 224.213 117.288 224.26 117.275C224.213 117.288 224.167 117.3 224.12 117.312ZM220.997 117.232C221.05 117.251 221.103 117.268 221.157 117.284C221.103 117.268 221.05 117.251 220.997 117.232ZM224.39 117.241C224.455 117.223 224.519 117.204 224.583 117.185C224.519 117.204 224.455 117.223 224.39 117.241ZM220.738 117.135C220.789 117.156 220.841 117.175 220.893 117.194C220.841 117.175 220.789 117.156 220.738 117.135ZM224.653 117.163C224.722 117.141 224.791 117.117 224.861 117.094C224.791 117.117 224.722 117.141 224.653 117.163ZM220.478 117.018C220.529 117.042 220.579 117.065 220.63 117.088C220.579 117.065 220.529 117.042 220.478 117.018ZM224.948 117.064C225.03 117.035 225.113 117.005 225.196 116.974C225.113 117.005 225.03 117.035 224.948 117.064ZM225.223 116.963C225.287 116.938 225.35 116.913 225.414 116.887C225.35 116.913 225.287 116.938 225.223 116.963ZM220.24 116.894C220.276 116.914 220.313 116.933 220.349 116.952C220.313 116.933 220.276 116.914 220.24 116.894ZM226.081 116.59C225.899 116.678 225.718 116.76 225.537 116.837C225.718 116.76 225.899 116.678 226.081 116.59ZM219.975 116.736C220.02 116.765 220.064 116.792 220.109 116.818C220.064 116.792 220.02 116.765 219.975 116.736ZM219.736 116.574C219.777 116.604 219.819 116.633 219.861 116.661C219.819 116.633 219.777 116.604 219.736 116.574ZM52.4546 116.506C52.4771 116.509 52.5001 116.511 52.5239 116.512C52.5001 116.511 52.4771 116.509 52.4546 116.506ZM52.5425 116.512C52.5694 116.512 52.5969 116.51 52.6255 116.508C52.5969 116.51 52.5694 116.512 52.5425 116.512ZM52.6626 116.504C52.6886 116.501 52.7153 116.497 52.7427 116.491C52.7153 116.497 52.6886 116.501 52.6626 116.504ZM52.3374 116.482C52.345 116.485 52.353 116.486 52.3608 116.488C52.353 116.486 52.345 116.485 52.3374 116.482ZM219.487 116.385C219.529 116.419 219.572 116.453 219.615 116.485C219.572 116.453 219.529 116.419 219.487 116.385ZM52.7866 116.481C52.8077 116.477 52.8292 116.471 52.8511 116.465C52.8292 116.471 52.8077 116.477 52.7866 116.481ZM52.2554 116.449C52.2698 116.456 52.2851 116.462 52.3003 116.468C52.2851 116.462 52.2698 116.456 52.2554 116.449ZM52.1772 116.402C52.1907 116.412 52.205 116.42 52.2192 116.429C52.205 116.42 52.1907 116.412 52.1772 116.402ZM52.1108 116.347C52.1248 116.36 52.1389 116.373 52.1538 116.385C52.1389 116.373 52.1248 116.36 52.1108 116.347ZM226.598 116.322C226.609 116.316 226.62 116.311 226.631 116.305C226.62 116.311 226.609 116.316 226.598 116.322ZM52.0542 116.285C52.0637 116.297 52.0734 116.308 52.0835 116.319C52.0734 116.308 52.0637 116.297 52.0542 116.285ZM219.242 116.177C219.286 116.217 219.331 116.256 219.375 116.294C219.331 116.256 219.286 116.217 219.242 116.177ZM226.959 116.118C227.039 116.072 227.12 116.027 227.2 115.979C227.12 116.027 227.039 116.072 226.959 116.118ZM219.013 115.96C219.053 116 219.093 116.039 219.133 116.077C219.093 116.039 219.053 116 219.013 115.96ZM51.894 115.979C51.9011 116.001 51.9087 116.021 51.9165 116.041C51.9087 116.021 51.9011 116.001 51.894 115.979ZM218.772 115.708C218.818 115.758 218.863 115.808 218.909 115.855C218.863 115.808 218.818 115.758 218.772 115.708ZM227.463 115.815C227.559 115.755 227.656 115.695 227.751 115.633C227.656 115.695 227.559 115.755 227.463 115.815ZM51.8413 115.78C51.8436 115.791 51.8457 115.803 51.8481 115.813C51.8457 115.803 51.8436 115.791 51.8413 115.78ZM218.572 115.479C218.604 115.517 218.636 115.556 218.668 115.594C218.636 115.556 218.604 115.517 218.572 115.479ZM51.7886 114.986C51.7821 115.206 51.7881 115.408 51.8101 115.589C51.7881 115.408 51.7821 115.206 51.7886 114.986ZM228.085 115.409C228.153 115.363 228.222 115.317 228.29 115.27C228.222 115.317 228.153 115.363 228.085 115.409ZM228.598 115.049C228.676 114.992 228.755 114.935 228.833 114.877C228.755 114.935 228.676 114.992 228.598 115.049ZM51.8052 114.674C51.7999 114.743 51.7976 114.811 51.7944 114.877C51.7976 114.811 51.7999 114.743 51.8052 114.674ZM229.082 114.689C229.186 114.61 229.289 114.529 229.392 114.448C229.289 114.529 229.186 114.61 229.082 114.689ZM51.8403 114.327C51.8327 114.392 51.8259 114.456 51.8198 114.52C51.8259 114.456 51.8327 114.392 51.8403 114.327ZM5.93408 114.415C5.98453 114.362 6.02829 114.311 6.06689 114.261C6.02828 114.311 5.98454 114.362 5.93408 114.415ZM229.633 114.256C229.727 114.18 229.821 114.104 229.914 114.027C229.821 114.104 229.727 114.18 229.633 114.256ZM51.895 113.923C51.8828 114.002 51.8712 114.081 51.8608 114.158C51.8712 114.081 51.8828 114.002 51.895 113.923ZM6.14502 114.146C6.14968 114.139 6.15428 114.131 6.15869 114.123C6.15428 114.131 6.14968 114.139 6.14502 114.146ZM6.21729 113.997C6.22072 113.988 6.2229 113.978 6.22607 113.969C6.2229 113.978 6.22072 113.988 6.21729 113.997ZM230.15 113.83C230.243 113.751 230.336 113.672 230.428 113.593C230.336 113.672 230.243 113.751 230.15 113.83ZM52.0571 113.038C52.0023 113.298 51.954 113.554 51.9136 113.802C51.9547 113.55 52.004 113.289 52.0601 113.024L52.0571 113.038ZM230.652 113.397C230.738 113.322 230.823 113.246 230.908 113.17C230.823 113.246 230.738 113.322 230.652 113.397ZM231.159 112.944C231.247 112.864 231.334 112.784 231.42 112.704C231.334 112.784 231.247 112.864 231.159 112.944ZM231.667 112.475C231.732 112.413 231.796 112.351 231.861 112.29C231.796 112.351 231.732 112.413 231.667 112.475ZM52.2358 112.259C52.2285 112.289 52.2216 112.319 52.2144 112.349C52.2216 112.319 52.2285 112.289 52.2358 112.259ZM52.4702 111.368C52.4197 111.551 52.3716 111.736 52.3237 111.921C52.3716 111.736 52.4196 111.551 52.4702 111.368ZM52.7114 110.533C52.6552 110.721 52.5999 110.913 52.5444 111.108C52.6 110.913 52.6552 110.721 52.7114 110.533ZM53.3774 108.463C53.2175 108.931 52.9924 109.608 52.7603 110.372C52.9924 109.608 53.2175 108.931 53.3774 108.463ZM150.864 75.292C150.575 75.236 150.201 75.2481 149.89 75.2744C145.551 75.8162 140.569 78.4954 135.905 82.0186C131.259 85.528 127.051 89.7823 124.278 93.292C122.999 94.9102 121.435 97.2212 120.211 99.6562C118.974 102.12 118.151 104.58 118.208 106.539C118.223 107.059 118.489 107.575 118.996 108.056C119.5 108.535 120.18 108.913 120.839 109.14C125.376 110.504 130.856 109.008 135.156 106.741C136.517 106.023 138.629 104.578 140.602 102.95C142.593 101.307 144.29 99.5979 144.98 98.3594C146.694 94.7265 148.033 91.0317 149.229 87.1152C149.757 85.3867 150.361 83.2466 150.749 81.0996C151.129 78.9867 151.282 76.9521 150.996 75.3262C150.962 75.3149 150.918 75.3026 150.864 75.292ZM224.34 68.3887C220.558 69.1371 216.47 71.9145 212.697 75.4346C208.932 78.9466 205.602 83.0829 203.36 86.3174L203.361 86.3184C201.996 88.2878 199.561 92.263 198.131 96.2041C197.415 98.1792 196.977 100.073 197.01 101.666C197.04 103.118 197.454 104.228 198.314 104.986C198.77 105.007 199.213 105.027 199.636 105.034C203.246 104.401 207.026 101.988 210.51 98.8721C214.001 95.7504 217.087 92.0237 219.268 88.9971C221.234 86.2701 223.242 83.2283 224.643 80.0225C226.044 76.8179 226.812 73.5078 226.374 70.2246C226.274 69.4823 226.026 69.0151 225.732 68.75C225.462 68.5067 225.039 68.3308 224.34 68.3887ZM186.602 70.6494C184.04 71.0002 181.264 72.4678 178.529 74.7539C175.791 77.0427 173.164 80.0929 170.922 83.4639C168.682 86.8338 166.844 90.4961 165.669 93.9922C164.49 97.5028 164.002 100.772 164.376 103.386C164.575 104.772 164.904 104.889 165.016 104.929C165.159 104.979 165.397 105.008 165.83 104.979C166.256 104.951 166.736 104.88 167.375 104.8C170.165 104.234 173.345 102.802 176.35 100.948C179.125 99.2362 181.695 97.1974 183.613 95.2412C183.066 93.8573 183.053 92.0634 183.269 90.2197C183.532 87.9783 184.166 85.4056 184.925 82.8496C185.686 80.2874 186.584 77.7026 187.386 75.4326C188.013 73.6588 188.573 72.0958 188.974 70.8672C188.188 70.6876 187.497 70.6149 186.602 70.6494ZM101.932 71.7598C98.233 72.3828 94.4617 74.7155 90.9702 77.7705C87.4781 80.8262 84.3604 84.5189 81.9917 87.6768C80.7944 89.2731 78.8907 92.399 77.771 95.6133C77.2114 97.2197 76.867 98.7948 76.8745 100.183C76.8817 101.514 77.2117 102.605 77.9146 103.42C77.9466 103.436 77.9864 103.456 78.0337 103.477C78.0934 103.503 78.1561 103.528 78.2134 103.551C79.9962 103.453 82.0795 102.619 84.2983 101.197C86.5752 99.7379 88.9073 97.7195 91.0757 95.4541C95.4373 90.8973 98.9896 85.5012 100.117 81.9277C100.714 80.0326 101.135 77.9196 101.628 75.8809L101.63 75.876L101.776 75.3311C101.932 74.7894 102.115 74.2586 102.287 73.7588C102.465 73.2408 102.631 72.7584 102.767 72.2998C102.725 72.2391 102.687 72.1814 102.646 72.126C102.54 71.9826 102.469 71.9073 102.415 71.8623C102.365 71.8215 102.278 71.7485 101.932 71.7598ZM37.4185 88.5547C37.5691 88.4787 37.7217 88.3976 37.8765 88.3125C37.7217 88.3976 37.5691 88.4787 37.4185 88.5547ZM38.0474 88.2158C38.1493 88.1582 38.2524 88.0994 38.356 88.0381C38.2524 88.0994 38.1493 88.1582 38.0474 88.2158ZM38.5483 87.9219C38.6441 87.8636 38.7403 87.8035 38.8374 87.7422C38.7403 87.8035 38.6441 87.8636 38.5483 87.9219ZM39.063 87.5986C39.1487 87.5431 39.235 87.4865 39.3218 87.4287C39.235 87.4865 39.1487 87.5431 39.063 87.5986ZM39.5503 87.2754C39.658 87.202 39.7663 87.1265 39.8755 87.0498C39.7663 87.1265 39.658 87.202 39.5503 87.2754ZM40.0806 86.9053C40.1769 86.8364 40.2732 86.7657 40.3706 86.6943C40.2732 86.7657 40.1769 86.8364 40.0806 86.9053ZM233.877 86.1152C234.133 85.4265 234.388 84.7375 234.643 84.0488C234.388 84.7375 234.133 85.4265 233.877 86.1152ZM41.189 86.0771C41.3466 85.9546 41.5055 85.8294 41.6655 85.7012C41.5055 85.8294 41.3466 85.9546 41.189 86.0771ZM41.936 85.4814C42.0203 85.4128 42.105 85.3435 42.1899 85.2734C42.105 85.3435 42.0203 85.4128 41.936 85.4814ZM42.5024 85.0127C42.5895 84.9396 42.6775 84.8665 42.7651 84.792C42.6775 84.8665 42.5895 84.9396 42.5024 85.0127ZM43.0649 84.5342C43.1686 84.4448 43.273 84.355 43.3774 84.2637C43.273 84.355 43.1686 84.4448 43.0649 84.5342ZM43.6079 84.0615C43.7525 83.9339 43.8975 83.8041 44.0435 83.6729C43.8975 83.8041 43.7525 83.9339 43.6079 84.0615ZM44.1255 83.5986C44.2262 83.5078 44.3269 83.4157 44.4282 83.3232C44.3269 83.4157 44.2262 83.5078 44.1255 83.5986ZM64.4546 78.5625C63.8706 80.0042 63.2898 81.4477 62.7134 82.8926C63.2898 81.4477 63.8706 80.0042 64.4546 78.5625ZM11.3091 79.5488C10.8861 80.4883 10.4662 81.4293 10.0503 82.3721C10.4662 81.4293 10.8861 80.4883 11.3091 79.5488ZM46.3452 81.5166C46.4201 81.4439 46.4956 81.3713 46.5708 81.2979C46.4956 81.3713 46.4201 81.4439 46.3452 81.5166ZM235.815 80.8643C235.909 80.6062 236.003 80.348 236.096 80.0898C236.003 80.348 235.909 80.6062 235.815 80.8643ZM47.5122 80.3643C47.5884 80.2879 47.6653 80.2118 47.7417 80.1348C47.6653 80.2118 47.5884 80.2879 47.5122 80.3643ZM48.272 79.5947C48.5426 79.3186 48.8153 79.0394 49.0884 78.7559C48.8153 79.0394 48.5426 79.3186 48.272 79.5947ZM161.836 79.2002C161.771 79.3057 161.706 79.412 161.641 79.5176C161.706 79.412 161.771 79.3057 161.836 79.2002ZM39.0005 76.9912C38.1845 77.7438 37.361 78.4644 36.5356 79.1406C37.3611 78.4644 38.1845 77.7438 39.0005 76.9912ZM162.298 78.4707C162.197 78.6277 162.099 78.7861 162 78.9434C162.115 78.7612 162.23 78.5783 162.347 78.3965L162.298 78.4707ZM12.5776 76.7607C12.3346 77.2898 12.0948 77.8204 11.854 78.3506C12.0948 77.8204 12.3346 77.2898 12.5776 76.7607ZM49.6118 78.209C49.8623 77.9461 50.1137 77.6805 50.3657 77.4121C50.1137 77.6805 49.8623 77.9461 49.6118 78.209ZM66.1919 74.3086C65.8373 75.1711 65.4852 76.0347 65.1333 76.8984C65.4852 76.0347 65.8373 75.1711 66.1919 74.3086ZM50.856 76.8877C51.1207 76.6033 51.3859 76.316 51.6519 76.0264C51.3859 76.316 51.1207 76.6033 50.856 76.8877ZM163.941 76.0615C163.883 76.1415 163.827 76.2225 163.77 76.3027C163.827 76.2225 163.883 76.1415 163.941 76.0615ZM164.531 75.2578C164.437 75.3832 164.345 75.5098 164.252 75.6357C164.345 75.5098 164.437 75.3832 164.531 75.2578ZM13.8774 73.959C13.6254 74.4969 13.3762 75.0361 13.1265 75.5752C13.3762 75.0361 13.6254 74.4969 13.8774 73.959ZM52.2251 75.4004C52.4671 75.1345 52.709 74.8663 52.9517 74.5967C52.709 74.8663 52.4671 75.1345 52.2251 75.4004ZM165.08 74.5371C164.984 74.6611 164.889 74.7864 164.794 74.9111C164.889 74.7864 164.984 74.6611 165.08 74.5371ZM56.0796 71.0498C55.2014 72.0659 54.3207 73.0677 53.4438 74.0488C54.3207 73.0677 55.2014 72.0659 56.0796 71.0498ZM166.287 73.0381C166.223 73.1145 166.16 73.1918 166.096 73.2686C166.16 73.1918 166.223 73.1145 166.287 73.0381ZM15.2085 71.1465C14.9627 71.6607 14.7197 72.1762 14.4761 72.6914C14.7197 72.1762 14.9627 71.6607 15.2085 71.1465ZM166.926 72.2881C166.832 72.3963 166.739 72.5062 166.646 72.6152C166.739 72.5062 166.832 72.3963 166.926 72.2881ZM67.9927 69.9629C67.6586 70.7634 67.3264 71.5647 66.9946 72.3662C67.3264 71.5647 67.6586 70.7634 67.9927 69.9629ZM167.595 71.5391C167.488 71.6574 167.381 71.7771 167.275 71.8965C167.381 71.7771 167.488 71.6574 167.595 71.5391ZM36.1812 67.7842C35.9098 68.6771 35.649 69.577 35.4048 70.4795C35.6489 69.5769 35.9098 68.6772 36.1812 67.7842ZM168.218 70.8672C168.118 70.973 168.02 71.0807 167.92 71.1875C168.02 71.0807 168.118 70.973 168.218 70.8672ZM56.3989 70.6777C56.7279 70.2957 57.0572 69.9124 57.3853 69.5273C57.0572 69.9124 56.7279 70.2957 56.3989 70.6777ZM168.898 70.167C168.802 70.2637 168.707 70.3613 168.612 70.459C168.707 70.3613 168.802 70.2637 168.898 70.167ZM16.5454 68.3779C16.2996 68.8824 16.0558 69.388 15.812 69.8936C16.0558 69.388 16.2996 68.8824 16.5454 68.3779ZM169.591 69.4834C169.493 69.5777 169.396 69.6732 169.299 69.7686C169.396 69.6732 169.493 69.5777 169.591 69.4834ZM170.287 68.8291C170.193 68.9152 170.1 69.0027 170.007 69.0898C170.1 69.0027 170.193 68.9152 170.287 68.8291ZM57.8423 68.9883C58.1247 68.6553 58.4068 68.3217 58.688 67.9873C58.4068 68.3217 58.1247 68.6553 57.8423 68.9883ZM171.013 68.1787C170.908 68.2703 170.805 68.3632 170.701 68.4561C170.805 68.3632 170.908 68.2703 171.013 68.1787ZM69.8999 65.4277C69.4863 66.4035 69.0747 67.3801 68.6646 68.3574C69.0747 67.3801 69.4863 66.4035 69.8999 65.4277ZM171.746 67.5557C171.631 67.6504 171.518 67.7466 171.405 67.8428C171.518 67.7465 171.631 67.6504 171.746 67.5557ZM59.0757 67.5234C59.3936 67.1439 59.712 66.765 60.0278 66.3848C59.712 66.765 59.3936 67.1439 59.0757 67.5234ZM17.9663 65.4922C17.6595 66.1094 17.355 66.7278 17.0513 67.3467C17.355 66.7278 17.6595 66.1094 17.9663 65.4922ZM172.488 66.958C172.372 67.0488 172.257 67.141 172.142 67.2334C172.257 67.141 172.372 67.0488 172.488 66.958ZM173.248 66.3779C173.128 66.4667 173.009 66.5579 172.89 66.6484C173.009 66.5579 173.128 66.4667 173.248 66.3779ZM174.029 65.8184C173.888 65.916 173.749 66.0161 173.61 66.1162C173.749 66.0161 173.888 65.916 174.029 65.8184ZM60.4087 65.9258C60.6626 65.6191 60.9154 65.3123 61.1675 65.0059C60.9154 65.3123 60.6626 65.6191 60.4087 65.9258ZM174.82 65.2871C174.679 65.3789 174.539 65.4731 174.399 65.5674C174.539 65.4731 174.679 65.3789 174.82 65.2871ZM19.2495 62.9336C18.9796 63.4671 18.7114 64.0014 18.4438 64.5361C18.7114 64.0014 18.9796 63.4671 19.2495 62.9336ZM61.772 64.2686C61.8509 64.1722 61.9296 64.0758 62.0083 63.9795C61.9296 64.0758 61.8509 64.1722 61.772 64.2686ZM71.7378 61.126C71.312 62.1158 70.8875 63.1062 70.4653 64.0977C70.8875 63.1062 71.312 62.1158 71.7378 61.126ZM178.18 63.4121C177.933 63.5277 177.687 63.6469 177.443 63.7705C177.687 63.6469 177.933 63.5277 178.18 63.4121ZM179.48 62.8486C179.3 62.9203 179.122 62.9943 178.944 63.0703C179.122 62.9943 179.3 62.9203 179.48 62.8486ZM20.5981 60.293C20.3887 60.6995 20.1802 61.1064 19.9722 61.5137C20.1802 61.1064 20.3887 60.6995 20.5981 60.293ZM64.4897 60.915C64.3387 61.1032 64.1878 61.2924 64.0356 61.4814C64.1878 61.2924 64.3387 61.1032 64.4897 60.915ZM73.6079 56.8105C73.1821 57.7862 72.7568 58.7621 72.3345 59.7393C72.7568 58.7621 73.1821 57.7862 73.6079 56.8105ZM65.8999 59.1475C66.3362 58.5991 66.7664 58.0559 67.1899 57.5195C66.7664 58.0559 66.3362 58.5991 65.8999 59.1475ZM22.1714 57.2715C21.8721 57.8406 21.5734 58.4099 21.2769 58.9805C21.5734 58.4099 21.8721 57.8406 22.1714 57.2715ZM23.5005 54.7646C23.228 55.2742 22.9564 55.7842 22.686 56.2949C22.9564 55.7842 23.228 55.2742 23.5005 54.7646ZM68.2427 56.1846C68.6748 55.6343 69.0992 55.093 69.5142 54.5615C69.0992 55.093 68.6748 55.6343 68.2427 56.1846ZM76.02 51.3291C75.4072 52.7076 74.7987 54.0881 74.1929 55.4697C74.7987 54.0881 75.4072 52.7076 76.02 51.3291ZM24.9858 52.0137C24.7069 52.5257 24.4276 53.0375 24.1509 53.5508C24.4276 53.0375 24.7069 52.5257 24.9858 52.0137ZM26.5483 49.1729C26.2441 49.7209 25.9399 50.2689 25.6382 50.8184C25.9399 50.2689 26.2441 49.7209 26.5483 49.1729ZM28.0728 46.4521C27.7423 47.0367 27.4111 47.6208 27.0835 48.207C27.4111 47.6208 27.7423 47.0367 28.0728 46.4521ZM29.6206 43.7383C29.2761 44.3368 28.9308 44.9349 28.5894 45.5352C28.9308 44.9349 29.2761 44.3368 29.6206 43.7383ZM34.9419 34.7686C34.3832 35.6731 33.831 36.582 33.2856 37.4951C33.831 36.582 34.3832 35.6731 34.9419 34.7686ZM36.0181 33.0449C35.7257 33.5083 35.4348 33.9727 35.146 34.4385C35.4348 33.9727 35.7257 33.5083 36.0181 33.0449ZM37.5063 30.7188C37.3337 30.9848 37.1622 31.2517 36.9907 31.5186C37.1623 31.2517 37.3336 30.9848 37.5063 30.7188ZM38.4048 29.3457C38.2056 29.6475 38.0077 29.9501 37.8101 30.2529C38.0077 29.9501 38.2056 29.6475 38.4048 29.3457ZM39.269 28.0479C39.0666 28.3498 38.8645 28.6521 38.6636 28.9551C38.8645 28.6521 39.0665 28.3498 39.269 28.0479ZM40.1479 26.748C39.9901 26.9797 39.8332 27.212 39.6763 27.4443C39.8332 27.212 39.9901 26.9797 40.1479 26.748ZM41.0894 25.377C40.8922 25.6615 40.6963 25.9469 40.5005 26.2324C40.6963 25.9469 40.8922 25.6615 41.0894 25.377ZM42.0171 24.0508C41.8149 24.3379 41.6124 24.6249 41.4116 24.9131C41.6124 24.6249 41.8149 24.3379 42.0171 24.0508ZM42.9448 22.7412C42.7331 23.0372 42.5222 23.3338 42.312 23.6309C42.5223 23.3338 42.7331 23.0372 42.9448 22.7412ZM44.9683 19.9609C45.6537 19.0349 46.346 18.114 47.0464 17.1992C46.3461 18.1139 45.6536 19.0349 44.9683 19.9609ZM84.1567 21.0518C83.8794 21.4261 83.6046 21.8024 83.3286 22.1777C83.6046 21.8024 83.8794 21.4261 84.1567 21.0518ZM86.6392 17.7393C86.3371 18.1385 86.0355 18.5381 85.7349 18.9385C86.0355 18.5381 86.3371 18.1385 86.6392 17.7393ZM87.7085 16.3301C87.4923 16.6134 87.2775 16.8978 87.062 17.1816C87.2775 16.8978 87.4922 16.6133 87.7085 16.3301ZM89.2886 14.2744C88.9502 14.7119 88.6125 15.15 88.2759 15.5889C88.6125 15.15 88.9502 14.7119 89.2886 14.2744ZM90.5884 12.6035C90.2118 13.0852 89.8359 13.5674 89.4614 14.0508C89.8359 13.5674 90.2118 13.0852 90.5884 12.6035ZM50.2593 13.0967C50.0266 13.3861 49.7981 13.679 49.5688 13.9697C49.7981 13.679 50.0266 13.3861 50.2593 13.0967ZM50.8306 12.3965C50.6817 12.577 50.5327 12.758 50.3853 12.9404C50.5327 12.758 50.6817 12.577 50.8306 12.3965ZM90.8169 12.3105C90.7827 12.3542 90.7485 12.3978 90.7144 12.4414C91.1336 11.9058 91.5542 11.3713 91.9761 10.8379L90.8169 12.3105ZM51.3013 11.833C51.1942 11.9595 51.0873 12.0868 50.981 12.2148C51.0873 12.0868 51.1942 11.9595 51.3013 11.833ZM52.0972 10.915C51.9141 11.1192 51.7332 11.3278 51.5522 11.5381C51.7332 11.3278 51.9141 11.1192 52.0972 10.915ZM58.7729 9.93652C58.7385 9.90284 58.704 9.86925 58.6685 9.83691C58.704 9.86924 58.7385 9.90284 58.7729 9.93652ZM58.3218 9.55566C58.2803 9.52553 58.2383 9.49625 58.1958 9.46777C58.2383 9.49624 58.2803 9.52554 58.3218 9.55566ZM58.1333 9.42676C58.0917 9.39999 58.0498 9.37381 58.0073 9.34863C58.0498 9.37381 58.0917 9.4 58.1333 9.42676ZM57.9829 9.33496C57.9316 9.30504 57.8801 9.27564 57.8276 9.24805C57.8801 9.27563 57.9316 9.30505 57.9829 9.33496ZM57.8032 9.23535C57.7572 9.21153 57.7105 9.189 57.6636 9.16699C57.7105 9.18899 57.7572 9.21155 57.8032 9.23535ZM57.5903 9.13379C57.5544 9.11778 57.5184 9.10185 57.4819 9.08691C57.5184 9.10184 57.5544 9.11779 57.5903 9.13379ZM57.4272 9.06445C57.3798 9.04581 57.3318 9.02855 57.2837 9.01172C57.3318 9.02854 57.3798 9.04582 57.4272 9.06445ZM57.2349 8.99512C57.1911 8.98046 57.1473 8.96627 57.103 8.95312C57.1473 8.96626 57.1911 8.98047 57.2349 8.99512ZM57.0376 8.93359C56.9875 8.91963 56.9369 8.90752 56.8862 8.89551C56.9369 8.90751 56.9875 8.91964 57.0376 8.93359ZM56.6548 8.84668C56.5202 8.82308 56.3839 8.80657 56.2466 8.79688C56.3839 8.80657 56.5202 8.8231 56.6548 8.84668ZM52.9155 116.445C52.9514 116.434 52.988 116.42 53.0259 116.405C52.988 116.42 52.9514 116.434 52.9155 116.445ZM36.6099 32.1123C36.4118 32.4227 36.2145 32.7335 36.0181 33.0449C36.2145 32.7335 36.4118 32.4227 36.6099 32.1123ZM43.9155 21.3965C43.6836 21.7154 43.4514 22.0342 43.2212 22.3545C43.4514 22.0343 43.6836 21.7154 43.9155 21.3965ZM43.9155 21.3965C43.985 21.3009 44.0539 21.2048 44.1235 21.1094C44.0539 21.2048 43.985 21.3009 43.9155 21.3965ZM85.356 19.4424C85.0332 19.8737 84.7112 20.3056 84.3901 20.7383C84.7112 20.3057 85.0332 19.8737 85.356 19.4424ZM56.8501 8.88672C56.7909 8.87326 56.7313 8.86135 56.6714 8.85059C56.7313 8.86134 56.7909 8.87327 56.8501 8.88672Z" fill="#282828"/>
</svg>
