<svg width="22" height="22" viewBox="0 0 22 22" fill="none" xmlns="http://www.w3.org/2000/svg">
  <path d="M9.32098 0.807937C9.82372 -0.269294 11.3555 -0.269293 11.8583 0.807939L14.3518 6.15087C14.4909 6.44885 14.7304 6.68837 15.0284 6.82744L20.3713 9.32099C21.4485 9.82374 21.4485 11.3555 20.3713 11.8583L15.0284 14.3518C14.7304 14.4909 14.4909 14.7304 14.3518 15.0284L11.8583 20.3713C11.3555 21.4486 9.82372 21.4486 9.32098 20.3713L6.82742 15.0284C6.68835 14.7304 6.44884 14.4909 6.15086 14.3518L0.807923 11.8583C-0.269309 11.3555 -0.269307 9.82374 0.807925 9.32099L6.15086 6.82743C6.44884 6.68837 6.68835 6.44885 6.82742 6.15087L9.32098 0.807937Z" fill="#7B3A45"/>
</svg>
