<svg width="1706" height="1594" viewBox="0 0 1706 1594" fill="none" xmlns="http://www.w3.org/2000/svg">
<path d="M983.564 620.88C1003.87 621 1023.02 630.822 1036.1 645.318L1036.61 645.887C1047.2 657.862 1053.16 672.417 1057.01 686.7C1060.41 699.292 1062.35 712.505 1064.13 724.151L1064.89 729.041C1069.02 755.309 1070.83 781.711 1072.29 807.721L1072.58 812.917V812.918C1073.12 822.673 1073.65 832.39 1074.35 842.322L1074.66 846.593L1074.67 846.706L1074.67 846.82C1076 871.484 1077.06 895.925 1077.98 920.538L1077.98 920.543C1080.35 984.464 1081.82 1048.29 1083 1111.99L1083.24 1124.73V1124.74C1084.35 1187.48 1085.16 1250.21 1085.86 1312.91L1086.09 1333.52C1086.16 1340.39 1086.23 1347.26 1086.3 1354.12L1086.73 1395.33V1395.33C1086.95 1417.55 1087.47 1440.32 1086.72 1463.05L1086.72 1463.06V1463.07C1086.53 1468.56 1083.55 1474.45 1077.61 1477.35L1077.6 1477.36C1073.96 1479.13 1069.83 1479.46 1065.93 1478.05C1062.39 1476.77 1059.99 1474.4 1058.51 1472.49C1055.61 1468.77 1054.13 1464.16 1053.56 1460.63L1053.56 1460.63C1044.25 1402.83 1037.24 1344.69 1029.95 1286.95C1026.32 1258.26 1021.83 1229.7 1017.29 1200.95C1012.75 1172.26 1008.15 1143.37 1004.34 1114.3L1003.71 1109.41C997.236 1058.89 992.811 1007.77 987.237 957.677L986.713 952.912C981.801 907.817 978.469 864.701 967.39 822.372C953.682 839.145 940.661 856.496 928.371 874.355L928.37 874.357C904.488 909.044 889.883 949.332 875.689 990.861L872.854 999.183C856.075 1048.5 839.363 1097.64 824.228 1147.25L822.768 1152.06C815.663 1175.52 809.946 1199.23 804.297 1223.25C798.67 1247.18 793.094 1271.48 786.343 1295.62L786.312 1295.73L786.279 1295.84C778.064 1323.03 772.824 1339.92 753.615 1367.5L753.146 1368.17L752.58 1368.77C751.615 1369.79 750.582 1371.01 749.162 1372.69C744.817 1377.87 738.532 1385.41 727.953 1391.96C717.346 1398.52 703.081 1403.7 682.871 1405.73L682.336 1405.79L681.798 1405.79C645.909 1405.88 627.077 1385.7 619.097 1376.3L619.019 1376.21L618.942 1376.12C613.323 1369.2 609.479 1363.22 606.195 1358.11L603.839 1354.43C592.169 1336.19 582.27 1319.73 575.373 1296.74V1296.74C550.468 1213.74 524.926 1134.32 500.597 1049.08L498.246 1040.82C493.857 1025.32 491.031 1009.48 488.374 994.265C484.589 1008.66 479.843 1022.43 474.817 1036.03V1036.03C463.703 1066.11 453.48 1099.16 441.171 1129.9L441.17 1129.9C429.91 1158.01 405.385 1205.88 373.464 1238.67C357.519 1255.05 338.775 1268.66 317.973 1273.21C296.425 1277.93 274.265 1272.57 253.148 1254.15H253.147C238.177 1241.09 226.934 1225.03 217.41 1208.71C208.165 1192.87 199.556 1174.91 191.529 1160.17L191.528 1160.17C157.685 1098.01 141.582 1029.56 127.62 962.502L127.619 962.494C127.108 960.033 126.667 956.384 127.377 952.654C128.101 948.852 130.655 942.643 137.89 940.466L147.12 937.689L151.086 946.475C172.661 994.276 195.599 1041.49 219.529 1088.23C230.336 1109.33 239.041 1130.61 251.022 1151.58C262.669 1171.96 275.99 1189.18 293.567 1199.85L293.569 1199.85C293.871 1200.03 294.126 1200.18 294.351 1200.31C294.581 1200.09 294.83 1199.83 295.083 1199.53C318.427 1171.56 329.677 1136.93 342.506 1100.23C358.518 1054.42 369.311 1006.75 380.886 958.43C392.402 910.356 404.668 861.77 423.595 815.394C428.284 803.865 434.174 791.157 443.604 780.565L443.605 780.563C454.79 768.006 470.772 759.096 488.184 757.657H488.185C524.046 754.696 553.151 782.841 567.369 810.733C574.404 824.531 579.57 839.108 584.12 853.372C588.781 867.982 592.601 881.584 597.345 895.186C607.519 924.345 615.866 954.522 624.533 983.595L626.271 989.395L626.275 989.407C626.983 991.764 627.693 994.12 628.405 996.476L630.547 1003.55L630.549 1003.56L636.23 1022.41L636.232 1022.42C642.494 1043.22 648.797 1064.17 655.049 1084.62L655.05 1084.63C662.075 1107.62 669.247 1130.56 676.582 1153.44C677.789 1148.82 679.008 1144.21 680.248 1139.61L681.637 1134.48C696.061 1081.55 712.838 1029.37 734.859 979.878L734.865 979.865C762.573 917.811 792.641 857.042 825.178 797.262L825.182 797.254L825.186 797.247C838.006 773.775 851.164 750.52 865.852 726.842L865.854 726.838C880.287 703.591 896.811 679.059 914.962 657.789C925.913 644.957 940.132 632.846 956.732 626.181L956.81 626.104L959.092 625.269C966.534 622.547 974.47 620.934 982.758 620.88H983.564ZM1195.43 95.7529C1196.19 96.017 1196.94 96.3461 1197.65 96.7354L1197.95 96.9023L1202.93 99.7783L1203.41 105.514C1217.1 269.268 1227.45 433.193 1236.4 597.17L1236.92 606.458C1239.55 652.896 1242.76 700.19 1242.77 747.215C1242.79 747.923 1242.81 748.517 1242.85 749.042C1242.93 749.052 1243.01 749.064 1243.09 749.075C1279.31 753.602 1319.17 756.495 1357.11 763.479C1395.41 770.532 1433.35 781.968 1467.2 804.345L1468.76 805.387C1501.44 827.411 1528.82 858.898 1542.66 896.6L1542.66 896.602C1557.6 937.335 1553.51 978.513 1541.94 1017.49C1530.43 1056.26 1511.13 1094.05 1494.73 1127.91C1456.74 1206.33 1441.71 1220.27 1391.75 1289.54L1391.75 1289.55C1382.19 1302.8 1365.48 1325.01 1347.89 1346.46C1330.55 1367.6 1311.54 1389 1297.56 1399.81C1292.59 1403.65 1286.66 1409.54 1279.66 1416.77C1272.87 1423.79 1265.18 1431.96 1257.34 1439.47C1249.49 1446.98 1240.99 1454.32 1232.23 1459.73C1223.57 1465.08 1213.6 1469.22 1203.06 1468.75C1192.22 1468.27 1181.59 1464.36 1172.92 1459.63C1164.28 1454.93 1156.56 1448.85 1151.73 1442.99C1138.44 1426.87 1133.2 1409.59 1130.77 1392.31C1129.56 1383.78 1129.03 1375.11 1128.58 1366.66C1128.11 1358.07 1127.74 1349.73 1126.88 1341.2V1341.2C1119.66 1268.62 1118.67 1201.03 1118.08 1129.92L1117.83 1099.2C1117.17 1019.76 1111.1 928.822 1118.88 848.056C1119.17 845.021 1119.98 831.968 1120.83 818.422C1121.64 805.407 1122.49 791.8 1122.88 788.049C1124.29 773.533 1125.94 744.483 1127.54 715.03C1129.14 685.805 1130.68 656.25 1131.86 641.245L1135.93 589.902C1144.5 482.112 1147.09 450.044 1154.85 318.463C1158.31 259.589 1169.09 170.794 1174.69 112.853C1174.98 109.821 1175.95 106.618 1177.45 103.848C1178.71 101.529 1181.66 97.0782 1187.22 95.5059L1193.42 93.75L1195.43 95.7529ZM1207.03 1457.68C1206.33 1457.74 1205.63 1457.78 1204.94 1457.78C1205.4 1457.78 1205.87 1457.76 1206.33 1457.73C1206.57 1457.72 1206.8 1457.7 1207.03 1457.68L1207.03 1457.68ZM1203.55 1457.76C1203.78 1457.77 1204.01 1457.78 1204.24 1457.78C1204.01 1457.78 1203.78 1457.77 1203.55 1457.76L1203.55 1457.76ZM1196.21 1456.81C1196.75 1456.92 1197.3 1457.03 1197.84 1457.12L1197.02 1456.97C1196.75 1456.92 1196.48 1456.87 1196.21 1456.81ZM1216.28 1455.48C1215.8 1455.66 1215.32 1455.83 1214.84 1455.99C1215.32 1455.83 1215.8 1455.66 1216.28 1455.48ZM1191.33 1455.56L1191.33 1455.55L1191.33 1455.56ZM1182.14 1451.98C1182.56 1452.18 1182.99 1452.38 1183.42 1452.57L1182.65 1452.22C1182.48 1452.14 1182.31 1452.06 1182.14 1451.98ZM1171.33 1445.77C1171.76 1446.07 1172.19 1446.36 1172.63 1446.65C1173.07 1446.94 1173.52 1447.22 1173.97 1447.51C1175.1 1448.22 1176.26 1448.91 1177.46 1449.58C1175.3 1448.37 1173.25 1447.09 1171.33 1445.77ZM1160.22 1436L1160.22 1436C1160.34 1436.14 1160.46 1436.28 1160.58 1436.43C1161.18 1437.14 1161.86 1437.86 1162.59 1438.6C1161.71 1437.72 1160.92 1436.85 1160.22 1436ZM1153.56 1426.62C1153.83 1427.08 1154.11 1427.53 1154.4 1427.98C1153.97 1427.3 1153.55 1426.62 1153.15 1425.94L1153.56 1426.62ZM1151.98 1423.89C1151.73 1423.43 1151.48 1422.97 1151.24 1422.51C1151.48 1422.97 1151.73 1423.43 1151.98 1423.89ZM1144.25 1404.09V1404.09V1404.09ZM685.228 1394.4L685.227 1394.4L685.228 1394.4ZM670.824 1394.06C671.68 1394.18 672.549 1394.29 673.433 1394.38L672.118 1394.23C671.683 1394.18 671.252 1394.12 670.824 1394.06ZM696.234 1392.56C694.293 1392.98 692.266 1393.36 690.148 1393.7C692.266 1393.36 694.293 1392.98 696.234 1392.56ZM668.299 1393.66H668.3H668.299ZM661.213 1392.02C661.96 1392.24 662.72 1392.44 663.494 1392.64C663.881 1392.73 664.271 1392.83 664.665 1392.92H664.666C663.485 1392.65 662.334 1392.34 661.213 1392.02ZM706.893 1389.66C705.679 1390.07 704.423 1390.46 703.122 1390.84C704.423 1390.46 705.679 1390.07 706.893 1389.66ZM710.094 1388.51C709.54 1388.73 708.976 1388.93 708.402 1389.14C708.976 1388.93 709.54 1388.73 710.094 1388.51ZM650.041 1387.62V1387.62V1387.62ZM712.615 1387.5V1387.5V1387.5ZM1140.92 1384.72C1140.97 1385.23 1141.03 1385.74 1141.08 1386.24C1141.03 1385.74 1140.97 1385.23 1140.92 1384.72V1384.72ZM720.442 1383.63C720.148 1383.8 719.849 1383.97 719.547 1384.14L720.442 1383.63C720.737 1383.46 721.028 1383.29 721.315 1383.12L720.442 1383.63ZM1140.62 1381.66H1140.62H1140.62ZM730.23 1376.68C729.201 1377.57 728.108 1378.46 726.942 1379.34C728.108 1378.46 729.201 1377.57 730.23 1376.68ZM566.498 1229.76C572.98 1250.87 579.459 1272.09 585.909 1293.58C586.553 1295.73 587.225 1297.81 587.924 1299.85C588.157 1300.52 588.392 1301.2 588.631 1301.86C589.586 1304.53 590.589 1307.11 591.64 1309.62C591.902 1310.25 592.168 1310.87 592.437 1311.49C593.51 1313.97 594.631 1316.39 595.798 1318.77C596.09 1319.36 596.384 1319.95 596.682 1320.54C599.359 1325.85 602.267 1330.98 605.398 1336.17C605.746 1336.75 606.097 1337.33 606.45 1337.9C609.277 1342.53 612.279 1347.23 615.449 1352.16C616.88 1354.39 618.366 1356.7 620.021 1359.13C620.257 1359.48 620.497 1359.83 620.74 1360.18C621.227 1360.88 621.73 1361.6 622.25 1362.32C619.65 1358.69 617.494 1355.34 615.45 1352.16C602.77 1332.43 592.78 1316.48 585.91 1293.58C579.46 1272.08 572.98 1250.87 566.498 1229.76ZM746.258 1358.79H746.259H746.258ZM752.21 1349.65C751.533 1350.74 750.833 1351.85 750.107 1352.98C750.833 1351.85 751.533 1350.74 752.21 1349.65V1349.65ZM1137.99 1341.77L1137.99 1341.77L1137.99 1341.77ZM1137.08 1332.41C1136.6 1327.29 1136.15 1322.19 1135.73 1317.11C1135.94 1319.65 1136.16 1322.19 1136.38 1324.74C1136.61 1327.29 1136.84 1329.85 1137.08 1332.41H1137.08ZM1134.27 1298.15C1134.36 1299.41 1134.45 1300.67 1134.55 1301.93C1134.36 1299.41 1134.18 1296.89 1134.01 1294.38L1134.27 1298.15ZM1252.8 1280.3L1252.8 1280.3L1252.8 1280.3ZM1132.44 1268.12C1131.98 1259.41 1131.59 1250.72 1131.26 1242.05C1131.59 1250.72 1131.98 1259.41 1132.44 1268.12ZM309.753 1263.45C309.264 1263.51 308.774 1263.56 308.284 1263.6C308.774 1263.56 309.264 1263.51 309.753 1263.45ZM1262.41 858.284C1259.86 857.66 1257.21 857.68 1254.69 858.345H1254.69C1252.51 858.923 1250.45 859.629 1248.83 860.41C1252.41 944.854 1255.58 1029.32 1258.29 1113.67C1258.65 1124.74 1259 1135.88 1259.35 1147.02L1260.66 1188.73V1188.74C1260.74 1191.67 1260.83 1194.57 1260.92 1197.42L1260.98 1199.17V1199.19L1260.99 1199.21C1261.6 1218.95 1262.2 1238.4 1262.92 1257.69C1297.98 1210.86 1328.81 1159.53 1358.77 1109.6C1367.3 1095.38 1375.76 1081.3 1384.2 1067.5C1395.07 1049.51 1405.05 1031.55 1412.66 1014.96L1412.68 1014.92L1412.69 1014.89C1417.83 1003.86 1421.69 993.064 1424.11 983.643C1426.59 974.023 1427.37 966.571 1426.96 961.977L1426.96 961.925L1426.96 961.872C1426.57 957.05 1425.75 953.678 1423.15 949.574C1420.26 945.004 1414.85 939.06 1404.11 930.1L1404.1 930.094L1404.09 930.088C1400.88 927.401 1397.65 924.788 1394.42 922.258L1394.41 922.253L1394.41 922.249C1355.25 891.561 1314.89 870.981 1264.28 858.826L1263.06 858.532L1262.76 858.386L1262.41 858.284ZM1282.63 1249.4H1282.63H1282.63ZM1290.16 1238.75C1289.83 1239.23 1289.49 1239.7 1289.16 1240.18C1290.12 1238.81 1291.07 1237.44 1292.03 1236.07L1290.16 1238.75ZM1309.9 1209.53C1308.23 1212.07 1306.56 1214.62 1304.87 1217.15C1304.26 1218.06 1303.66 1218.97 1303.05 1219.87H1303.06C1305.35 1216.43 1307.64 1212.98 1309.9 1209.53ZM1129.47 1167.6C1129.53 1172.6 1129.61 1177.58 1129.69 1182.56C1129.73 1185.05 1129.77 1187.53 1129.82 1190.01C1129.91 1194.98 1130.01 1199.94 1130.13 1204.9C1130.19 1207.38 1130.25 1209.85 1130.31 1212.33L1130.31 1212.33C1129.86 1195 1129.58 1177.63 1129.37 1160.1L1129.47 1167.6ZM294.029 1211.69V1211.69V1211.69ZM298.042 1210.94C297.409 1211.22 296.756 1211.43 296.086 1211.56C295.974 1211.58 295.862 1211.6 295.749 1211.62C295.531 1211.65 295.312 1211.68 295.091 1211.69C296.112 1211.62 297.1 1211.36 298.042 1210.94ZM292.394 1211.41C292.638 1211.47 292.885 1211.53 293.134 1211.58C292.885 1211.53 292.638 1211.47 292.394 1211.41ZM298.667 1210.65C298.564 1210.7 298.461 1210.75 298.356 1210.8L298.668 1210.65C298.771 1210.59 298.873 1210.54 298.975 1210.48L298.667 1210.65ZM300.452 1209.53C300.262 1209.67 300.07 1209.8 299.874 1209.93C300.07 1209.8 300.262 1209.67 300.452 1209.53ZM1012.21 1088.47C1013.18 1096.61 1014.18 1104.74 1015.25 1112.87C1016.67 1123.71 1018.2 1134.52 1019.79 1145.32C1020.06 1147.12 1020.33 1148.92 1020.6 1150.72C1023.03 1166.91 1025.59 1183.07 1028.15 1199.23C1023.61 1170.5 1019.03 1141.77 1015.25 1112.87C1014.19 1104.74 1013.18 1096.61 1012.21 1088.47V1088.47ZM1320.32 1193.4C1318.19 1196.75 1316.05 1200.09 1313.89 1203.42C1316.05 1200.09 1318.19 1196.75 1320.32 1193.4ZM223.501 1197.19V1197.19V1197.19ZM315.277 1190.62C314.99 1191.06 314.701 1191.5 314.41 1191.94C315.031 1191 315.644 1190.06 316.246 1189.12L315.277 1190.62ZM1327.87 1181.47C1326.71 1183.31 1325.56 1185.15 1324.4 1186.99C1326.72 1183.31 1329.03 1179.63 1331.32 1175.95L1327.87 1181.47ZM319.059 1184.56C318.565 1185.38 318.062 1186.21 317.556 1187.02C318.062 1186.21 318.565 1185.38 319.059 1184.56ZM190.96 1134.81C194.178 1141.58 197.581 1148.28 201.189 1154.91C202.788 1157.85 204.366 1160.82 205.937 1163.82C206.46 1164.82 206.983 1165.82 207.505 1166.83C209.594 1170.85 211.676 1174.91 213.78 1178.97C209.571 1170.84 205.452 1162.74 201.189 1154.91C197.581 1148.28 194.178 1141.58 190.96 1134.81V1134.81ZM325.952 1172.08H325.953H325.952ZM1341.57 1159.35C1340.44 1161.19 1339.31 1163.04 1338.17 1164.88C1340.44 1161.19 1342.7 1157.5 1344.95 1153.81L1341.57 1159.35ZM523.019 1086.84C529.374 1108.38 535.789 1129.62 542.234 1150.75C534.983 1126.98 527.772 1103.07 520.639 1078.75L523.019 1086.84ZM331.357 1160.83H331.358H331.357ZM336.964 1147.69C336.741 1148.24 336.517 1148.79 336.292 1149.34C336.743 1148.24 337.188 1147.13 337.63 1146.02L336.964 1147.69ZM697.922 1117.05C696.956 1120.43 696.001 1123.81 695.056 1127.2C693.638 1132.28 692.244 1137.37 690.869 1142.47H690.87C693.161 1133.97 695.507 1125.49 697.922 1117.05ZM179.423 1108.36V1108.36V1108.36ZM1380.93 1094.07C1377.66 1099.51 1374.37 1104.98 1371.08 1110.47C1374.37 1104.98 1377.66 1099.51 1380.93 1094.07ZM708.501 1081.81H708.502H708.501ZM1009.98 1068.93L1009.98 1068.93L1009.98 1068.93ZM1411.12 1042.62C1408.72 1047.11 1406.2 1051.64 1403.62 1056.18C1406.2 1051.64 1408.72 1047.11 1411.12 1042.62ZM721.828 1042.16C720.655 1045.43 719.499 1048.71 718.358 1052C719.499 1048.72 720.655 1045.44 721.828 1042.17V1042.16ZM507.173 1031.67C507.699 1033.72 508.25 1035.78 508.829 1037.82L508.83 1037.82C508.251 1035.78 507.699 1033.73 507.173 1031.67ZM1419.6 1026.02C1418.55 1028.2 1417.46 1030.39 1416.35 1032.6C1416.07 1033.16 1415.79 1033.71 1415.5 1034.26C1414.65 1035.92 1413.79 1037.59 1412.91 1039.27L1414.65 1035.93C1416.37 1032.59 1418.02 1029.29 1419.6 1026.02ZM727.222 1027.51C726.609 1029.13 726.002 1030.75 725.398 1032.38L727.223 1027.51C727.529 1026.7 727.836 1025.89 728.145 1025.08L727.222 1027.51ZM505.02 1022.66C505.346 1024.12 505.682 1025.58 506.028 1027.03L505.664 1025.48C505.445 1024.54 505.23 1023.6 505.02 1022.66ZM1126.82 1005.77H1126.82H1126.82ZM1431.21 998.275C1430.98 998.96 1430.75 999.648 1430.5 1000.34C1429.78 1002.41 1429 1004.51 1428.18 1006.63C1427.9 1007.34 1427.62 1008.05 1427.34 1008.76C1425.91 1012.32 1424.35 1015.92 1422.66 1019.54L1423.66 1017.37C1426.93 1010.15 1429.69 1003.01 1431.89 996.233V996.232C1431.67 996.91 1431.45 997.591 1431.21 998.275ZM732.857 1012.98H732.856H732.857ZM379.673 1010.58V1010.58V1010.58ZM744.909 984.35C744.559 985.137 744.21 985.924 743.862 986.713C742.472 989.866 741.104 993.031 739.755 996.207C741.441 992.237 743.159 988.284 744.91 984.35H744.909ZM1435.67 982.641V982.642V982.641ZM1437.06 975.579C1436.97 976.142 1436.87 976.712 1436.77 977.288V977.289C1436.87 976.713 1436.97 976.143 1437.06 975.58V975.579ZM495.588 965.719H495.589H495.588ZM1125.96 950.104C1125.97 952.75 1125.98 955.399 1126 958.049L1125.98 954.075C1125.97 952.751 1125.96 951.427 1125.96 950.104ZM493.659 956.354H493.66H493.659ZM771.467 926.787C769.65 930.601 767.842 934.419 766.044 938.242C764.246 942.065 762.457 945.893 760.678 949.726V949.727C764.237 942.061 767.833 934.415 771.467 926.787ZM492.411 952.425H492.412H492.411ZM488.998 946.142C489.026 946.245 489.051 946.356 489.072 946.473C489.051 946.355 489.026 946.245 488.998 946.141V946.142ZM1125.96 938.209C1125.95 939.529 1125.95 940.849 1125.95 942.17H1125.95C1125.95 939.528 1125.96 936.888 1125.98 934.252V934.251C1125.97 935.57 1125.96 936.889 1125.96 938.209ZM401.572 920.525H401.571H401.572ZM1401.19 913.59C1398.04 911.122 1394.88 908.717 1391.71 906.374C1392.98 907.311 1394.25 908.259 1395.51 909.216C1397.41 910.652 1399.3 912.11 1401.19 913.591C1402.86 914.896 1404.52 916.22 1406.18 917.563C1404.52 916.22 1402.86 914.895 1401.19 913.59ZM1126.33 910.619H1126.33H1126.33ZM1126.67 898.894C1126.76 896.296 1126.86 893.704 1126.98 891.118C1126.86 893.704 1126.76 896.296 1126.67 898.894ZM407.53 898.196V898.195V898.196ZM1374.43 894.318C1377.02 896.016 1379.59 897.752 1382.15 899.528C1379.59 897.752 1377.02 896.016 1374.43 894.318ZM1364.67 888.132V888.131V888.132ZM412.623 880.451H412.624H412.623ZM1356.74 883.441V883.442V883.441ZM1348.71 878.979V878.98V878.979ZM1128.01 871.85C1127.84 874.401 1127.69 876.96 1127.55 879.525L1127.77 875.683C1127.92 873.124 1128.09 870.572 1128.27 868.028L1128.01 871.85ZM1338.5 873.721V873.72V873.721ZM988.137 869.961C987.903 868.415 987.664 866.87 987.42 865.326C987.664 866.87 987.903 868.415 988.137 869.961ZM1328.06 868.81C1329.47 869.441 1330.87 870.082 1332.27 870.732C1330.87 870.082 1329.47 869.441 1328.06 868.81ZM416.679 867.229H416.68H416.679ZM1310.85 861.666C1312.32 862.225 1313.77 862.792 1315.22 863.369C1313.77 862.792 1312.32 862.225 1310.85 861.666ZM986.279 858.383H986.28H986.279ZM1295.2 856.124V856.125V856.124ZM1266.49 848.011C1266.7 848.071 1266.83 848.121 1266.85 848.131C1268.48 848.523 1270.11 848.924 1271.72 849.333C1273.33 849.742 1274.93 850.16 1276.53 850.587C1278.92 851.227 1281.28 851.886 1283.63 852.565C1285.2 853.018 1286.75 853.479 1288.3 853.949L1285.97 853.25C1279.75 851.404 1273.38 849.699 1266.85 848.13C1266.83 848.12 1266.7 848.071 1266.49 848.011ZM1248.46 848.73C1248.08 848.86 1247.69 848.996 1247.3 849.138H1247.31C1247.69 848.996 1248.08 848.861 1248.46 848.731L1248.46 848.73ZM983.269 842.228C983.581 843.763 983.886 845.299 984.184 846.836C983.886 845.299 983.581 843.762 983.269 842.227V842.228ZM1258.74 846.829C1256.44 846.822 1254.13 847.115 1251.88 847.71L1251.88 847.711C1253.23 847.354 1254.6 847.106 1255.98 846.966C1256.29 846.935 1256.59 846.908 1256.9 846.888C1257.36 846.857 1257.82 846.839 1258.28 846.832C1258.44 846.83 1258.59 846.83 1258.74 846.83V846.829ZM1260.12 846.87V846.869V846.87ZM428.721 832.411C428.177 833.847 427.638 835.284 427.105 836.724C427.638 835.284 428.177 833.847 428.721 832.411ZM1131.19 828.972H1131.19H1131.19ZM974.107 806.021C974.373 806.599 974.57 807.226 974.749 807.83C975.654 810.873 976.516 813.921 977.337 816.972C977.542 817.734 977.745 818.497 977.945 819.261C978.947 823.077 979.887 826.899 980.772 830.727C980.949 831.492 981.124 832.258 981.297 833.024L981.298 833.023C979.399 824.597 977.239 816.199 974.75 807.83C974.571 807.226 974.373 806.599 974.107 806.021ZM1485.14 832.121H1485.14H1485.14ZM822.805 824.89C821.473 827.395 820.147 829.902 818.823 832.411C820.147 829.902 821.473 827.395 822.805 824.89ZM433.779 819.55C432.909 821.683 432.052 823.822 431.209 825.966H431.21C432.053 823.822 432.909 821.683 433.779 819.55ZM1471.35 820.733H1471.35H1471.35ZM1465.56 816.533H1465.56H1465.56ZM557.569 815.73V815.729V815.73ZM554.215 809.65C554.486 810.106 554.752 810.563 555.016 811.021C554.752 810.563 554.486 810.106 554.215 809.65ZM1448.89 806.021C1449.93 806.608 1450.96 807.204 1451.99 807.81C1450.96 807.204 1449.93 806.608 1448.89 806.021ZM440.405 804.918H440.404H440.405ZM970.273 803.781H970.274H970.273ZM1442.64 802.605H1442.64H1442.64ZM444.354 797.953C444.756 797.307 445.167 796.667 445.586 796.032C445.167 796.667 444.756 797.307 444.354 797.953ZM1433.09 797.879H1433.09H1433.09ZM1133.48 793.297H1133.48H1133.48ZM1423.37 793.599C1423.92 793.825 1424.46 794.052 1425 794.282H1425C1424.46 794.052 1423.92 793.825 1423.37 793.599H1423.37ZM1403.46 786.262C1404.58 786.627 1405.7 787 1406.82 787.379C1405.7 787 1404.58 786.627 1403.46 786.262ZM454.601 784.961H454.602H454.601ZM1141.89 655.728C1141.72 658.375 1141.55 661.193 1141.38 664.152C1140.5 678.95 1139.53 697.291 1138.53 715.629C1137.73 730.299 1136.91 744.968 1136.12 757.82C1135.92 761.033 1135.72 764.132 1135.53 767.09C1135.33 770.048 1135.14 772.863 1134.94 775.509C1134.85 776.832 1134.75 778.112 1134.66 779.346C1134.47 781.813 1134.28 784.097 1134.1 786.167L1134.38 782.905C1136.8 753.313 1139.72 690.147 1141.89 655.728ZM1388.17 781.712C1389.31 782.022 1390.45 782.337 1391.59 782.658C1390.45 782.337 1389.31 782.022 1388.17 781.712ZM1365.64 776.356C1367.39 776.72 1369.14 777.093 1370.88 777.478C1369.14 777.093 1367.39 776.72 1365.64 776.356ZM1326.76 769.796C1329.14 770.122 1331.51 770.458 1333.88 770.806C1331.51 770.458 1329.14 770.122 1326.76 769.796ZM854.355 767.603H854.356H854.355ZM495.196 768.482C495.428 768.491 495.659 768.502 495.891 768.514C495.659 768.502 495.428 768.491 495.196 768.482ZM1262.73 762.438V762.437V762.438ZM869.814 741.413C868.041 744.333 866.289 747.247 864.555 750.159C866.288 747.248 868.041 744.333 869.814 741.414V741.413ZM875.2 732.64H875.199H875.2ZM907.236 685.146C906.193 686.542 905.156 687.945 904.126 689.355C903.611 690.061 903.097 690.767 902.585 691.476C900.537 694.309 898.513 697.166 896.517 700.041C896.017 700.76 895.519 701.479 895.023 702.2H895.024C898.992 696.435 903.065 690.728 907.236 685.146ZM911.972 678.923C913.033 677.553 914.099 676.193 915.172 674.843C914.099 676.193 913.033 677.553 911.972 678.923ZM925.37 662.594C924.679 663.366 923.998 664.145 923.329 664.93C922.227 666.221 921.131 667.526 920.041 668.842L921.682 666.877C922.23 666.225 922.779 665.575 923.33 664.93C924.334 663.753 925.363 662.589 926.416 661.439L925.37 662.594ZM931.88 655.837C930.749 656.925 929.64 658.035 928.555 659.162L929.648 658.041C930.749 656.926 931.873 655.83 933.019 654.757L931.88 655.837ZM1026.87 651.53C1027.23 651.913 1027.59 652.3 1027.94 652.69C1029.39 654.298 1030.75 655.969 1032.02 657.698V657.697C1030.75 655.968 1029.39 654.296 1027.94 652.689C1027.59 652.299 1027.23 651.912 1026.87 651.53ZM937.719 650.59C936.916 651.261 936.124 651.946 935.341 652.641C936.124 651.946 936.916 651.261 937.719 650.59ZM1024.64 649.291V649.29V649.291ZM946.474 644.025C944.314 645.461 942.206 646.996 940.154 648.612L941.393 647.652C943.052 646.386 944.746 645.174 946.474 644.025ZM1020.67 645.795C1021.02 646.075 1021.36 646.357 1021.7 646.644C1021.36 646.357 1021.02 646.075 1020.67 645.795ZM1224.62 583.246C1224.89 588.087 1225.16 592.928 1225.42 597.77C1226.1 610.204 1226.84 622.66 1227.56 635.126H1227.56C1226.84 622.66 1226.1 610.205 1225.42 597.771C1225.16 592.929 1224.89 588.087 1224.62 583.246ZM950.417 641.551C953.304 639.845 956.274 638.321 959.316 637.017C958.38 637.418 957.45 637.839 956.528 638.281C956.298 638.392 956.068 638.503 955.839 638.616C954.92 639.068 954.009 639.539 953.105 640.028C952.202 640.518 951.305 641.025 950.417 641.55V641.551ZM962.87 635.6H962.869L962.859 635.609C962.383 635.783 961.908 635.963 961.435 636.148L962.146 635.875C962.384 635.785 962.621 635.697 962.859 635.61L962.87 635.6ZM969.138 633.661C968.29 633.875 967.448 634.108 966.609 634.358L967.871 633.996C968.292 633.88 968.714 633.768 969.138 633.661ZM972.982 632.821H972.981H972.982ZM980.836 631.93C980.615 631.939 980.394 631.95 980.174 631.962L980.837 631.93C981.058 631.92 981.279 631.912 981.5 631.905L980.836 631.93ZM1221.12 520.94C1221.7 531.183 1222.29 541.427 1222.87 551.671C1222.29 541.427 1221.7 531.183 1221.12 520.94ZM1164.24 345.869C1162.47 375.46 1160.97 399.612 1159.58 421.062C1159.38 424.127 1159.18 427.136 1158.98 430.098C1158.2 441.946 1157.44 453.04 1156.67 463.891C1155.9 474.741 1155.12 485.348 1154.3 496.222H1154.3C1157.58 452.727 1160.2 413.505 1164.24 345.869ZM1215.62 428.771H1215.62H1215.62ZM1166.17 313.529H1166.17H1166.17ZM1167.44 295.859H1167.44H1167.44ZM1169.01 277.023H1169.01H1169.01ZM1173.5 230.183C1173.03 234.752 1172.57 239.307 1172.12 243.834C1172.57 239.307 1173.03 234.752 1173.5 230.183ZM1187.28 108.812C1187.17 108.991 1187.07 109.176 1186.98 109.365C1187.07 109.176 1187.17 108.991 1187.28 108.812ZM1188.23 107.464C1188.17 107.534 1188.11 107.607 1188.05 107.681C1188.11 107.607 1188.17 107.534 1188.23 107.464ZM1189 106.729C1188.9 106.806 1188.8 106.888 1188.71 106.975C1188.8 106.888 1188.9 106.806 1189 106.729ZM1189.61 106.33C1189.55 106.361 1189.49 106.396 1189.44 106.431C1189.49 106.396 1189.55 106.361 1189.61 106.33Z" fill="#212529"/>
</svg>
